<?xml version="1.0"?>
<svg xmlns="http://www.w3.org/2000/svg" xmlns:xlink="http://www.w3.org/1999/xlink" version="1.1" id="Layer_1" x="0px" y="0px" viewBox="0 0 508.149 508.149" style="enable-background:new 0 0 508.149 508.149;" xml:space="preserve" width="512px" height="512px" class=""><g><g>
	<g>
		<path d="M254.072,0.002c-19,0-34.462,15.462-34.462,34.462v85.74c0,19,15.462,34.462,34.462,34.462s34.462-15.462,34.462-34.462    v-85.74C288.534,15.464,273.072,0.002,254.072,0.002z M268.841,120.204c0,8.144-6.625,14.769-14.769,14.769    s-14.769-6.625-14.769-14.769v-85.74c0-8.144,6.625-14.769,14.769-14.769s14.769,6.625,14.769,14.769V120.204z" data-original="#000000" class="active-path" data-old_color="#000000" fill="#FFFFFF"/>
	</g>
</g><g>
	<g>
		<path d="M183.779,135.046l-60.625-60.635c-13.438-13.433-35.298-13.428-48.736,0.005c-6.51,6.51-10.096,15.163-10.096,24.37    s3.587,17.861,10.096,24.365l60.63,60.63c6.716,6.716,15.543,10.077,24.365,10.077c8.822,0,17.649-3.361,24.365-10.077    C197.216,170.344,197.216,148.483,183.779,135.046z M169.856,169.858c-5.76,5.76-15.125,5.76-20.885,0l-60.63-60.635    c-2.788-2.784-4.327-6.495-4.327-10.438c0-3.947,1.539-7.654,4.327-10.447c2.88-2.88,6.663-4.317,10.442-4.317    c3.784,0,7.567,1.438,10.447,4.317l60.625,60.63C175.615,154.728,175.615,164.099,169.856,169.858z" data-original="#000000" class="active-path" data-old_color="#000000" fill="#FFFFFF"/>
	</g>
</g><g>
	<g>
		<path d="M120.202,219.613h-85.74c-19,0-34.462,15.462-34.462,34.462s15.462,34.462,34.462,34.462h85.74    c19,0,34.462-15.462,34.462-34.462S139.202,219.613,120.202,219.613z M120.202,268.844h-85.74    c-8.144,0-14.769-6.625-14.769-14.769s6.625-14.769,14.769-14.769h85.74c8.144,0,14.769,6.625,14.769,14.769    S128.346,268.844,120.202,268.844z" data-original="#000000" class="active-path" data-old_color="#000000" fill="#FFFFFF"/>
	</g>
</g><g>
	<g>
		<path d="M183.779,324.368c-13.01-13.019-35.721-13.019-48.731,0l-60.63,60.625c-6.51,6.51-10.096,15.163-10.096,24.37    s3.587,17.861,10.096,24.37c6.716,6.716,15.538,10.077,24.365,10.077c8.822,0,17.649-3.361,24.37-10.077l60.625-60.63    C197.216,359.666,197.216,337.805,183.779,324.368z M169.856,359.18l-60.625,60.625c-5.76,5.76-15.13,5.764-20.889,0.005    c-2.788-2.793-4.327-6.5-4.327-10.447c0-3.942,1.539-7.654,4.327-10.442l60.635-60.63c2.784-2.788,6.495-4.327,10.438-4.327    c3.942,0,7.654,1.538,10.438,4.327h0.005C175.615,344.05,175.615,353.421,169.856,359.18z" data-original="#000000" class="active-path" data-old_color="#000000" fill="#FFFFFF"/>
	</g>
</g><g>
	<g>
		<path d="M254.072,353.483c-19,0-34.462,15.461-34.462,34.461v85.74c0,19,15.462,34.462,34.462,34.462s34.462-15.462,34.462-34.462    v-85.74C288.534,368.945,273.072,353.483,254.072,353.483z M268.841,473.685c0,8.144-6.625,14.769-14.769,14.769    s-14.769-6.625-14.769-14.769v-85.74c0-8.144,6.625-14.769,14.769-14.769s14.769,6.625,14.769,14.769V473.685z" data-original="#000000" class="active-path" data-old_color="#000000" fill="#FFFFFF"/>
	</g>
</g><g>
	<g>
		<path d="M433.726,384.998l-60.625-60.63c-13.019-13.024-35.731-13.005-48.731,0c-13.442,13.438-13.442,35.298,0,48.736    l60.625,60.635c6.51,6.505,15.163,10.087,24.365,10.087c9.212,0,17.865-3.582,24.365-10.091c6.51-6.51,10.096-15.164,10.096-24.37    S440.236,391.502,433.726,384.998z M419.803,419.81c-5.567,5.577-15.298,5.587-20.885,0l-60.625-60.63    c-5.76-5.76-5.76-15.13,0-20.889v-0.005c2.788-2.788,6.5-4.322,10.442-4.322s7.654,1.538,10.442,4.327l60.625,60.635    c2.788,2.784,4.327,6.495,4.327,10.438C424.13,413.31,422.591,417.017,419.803,419.81z" data-original="#000000" class="active-path" data-old_color="#000000" fill="#FFFFFF"/>
	</g>
</g><g>
	<g>
		<path d="M473.688,219.613h-85.74c-19,0-34.462,15.462-34.462,34.462s15.462,34.462,34.462,34.462h85.74    c19,0,34.462-15.462,34.462-34.462S492.688,219.613,473.688,219.613z M473.688,268.844h-85.74    c-8.144,0-14.769-6.625-14.769-14.769s6.625-14.769,14.769-14.769h85.74c8.144,0,14.769,6.625,14.769,14.769    S481.832,268.844,473.688,268.844z" data-original="#000000" class="active-path" data-old_color="#000000" fill="#FFFFFF"/>
	</g>
</g><g>
	<g>
		<path d="M433.726,74.416c-12.99-13.005-35.702-13.024-48.731,0l-60.625,60.63c-13.433,13.438-13.433,35.298,0,48.736    c6.5,6.51,15.154,10.091,24.365,10.091c9.202,0,17.856-3.582,24.365-10.091l60.625-60.625c6.51-6.51,10.096-15.163,10.096-24.37    S440.236,80.925,433.726,74.416z M419.803,109.228l-60.625,60.625c-5.577,5.596-15.317,5.572-20.885,0.005    c-5.76-5.76-5.76-15.13,0-20.889l60.625-60.625c2.788-2.793,6.5-4.327,10.442-4.327c3.952,0,7.654,1.534,10.442,4.322    c2.788,2.793,4.327,6.5,4.327,10.447C424.13,102.728,422.591,106.44,419.803,109.228z" data-original="#000000" class="active-path" data-old_color="#000000" fill="#FFFFFF"/>
	</g>
</g></g> </svg>
